<svg xmlns="http://www.w3.org/2000/svg" width="260" height="27" overflow="visible" viewBox="0 0 298 31"><path fill="none" d="M298 31H0V0h298v31z"/><path fill="#C82323" d="M129.198 8.023v4.005h11.232v6.768h-11.232v4.074h12.225v6.803h-21.827V1.327h21.643v6.696h-12.041zm-76.741 0-.001-6.696H30.814v28.346h21.827V22.87H40.417v-4.074h11.232v-6.768H40.417V8.023h12.04zm62.852 4.289c0 6.944-4.11 11.125-14.882 11.125h-1.878v6.236h-9.567l.001-28.346h11.904c11.551 0 14.422 4.181 14.422 10.985zm-9.603 0c0-3.154-1.099-4.288-5.279-4.288h-1.878v8.717h1.878c4.18-.001 5.279-1.312 5.279-4.429zm-20.976-.001c0 6.945-4.111 11.126-14.883 11.126H67.97v6.236h-9.566V1.327h11.905c11.55 0 14.421 4.181 14.421 10.984zm-9.602 0c0-3.153-1.099-4.287-5.28-4.287H67.97v8.717h1.878c4.181-.001 5.28-1.312 5.28-4.43zm-48.566.001c0 6.944-4.11 11.125-14.882 11.125H9.803v6.236H.235V1.327H12.14c11.552 0 14.422 4.181 14.422 10.985zm-9.602 0c0-3.154-1.099-4.288-5.279-4.288H9.803v8.717h1.878c4.18-.001 5.279-1.312 5.279-4.429zM258.021 1.327v14.102L245.194 1.327h-8.398v28.346h9.567V15.571l12.649 14.102h8.54V1.327h-9.531zm39.744 0h-25.938v7.83h8.186v20.516h9.531V9.157h8.221v-7.83zM175.424 29.673h-11.126l-7.086-9.213h-.461v9.213h-9.565V1.327H158.7c11.551 0 15.023 3.721 15.023 9.991 0 4.127-2.655 6.767-6.843 8.099l8.544 10.256zM164.12 11.318c0-2.621-1.346-3.295-4.818-3.295h-2.551v7.016h2.551c3.472 0 4.818-1.134 4.818-3.721zm41.657-9.991-9.354 11.621-9.531-11.621h-8.221v28.346h9.425v-13.96l7.938 9.638h.318l8.256-9.887v14.209h9.567V1.327h-8.398zm14.925 28.346h9.567V1.327h-9.567v28.346z"/></svg>