

<!-- Generator: Adobe Illustrator 26.2.1, SVG Export Plug-In . SVG Version: 6.00 Build 0)  -->
<svg version="1.1" id="Layer_1" xmlns="http://www.w3.org/2000/svg" xmlns:xlink="http://www.w3.org/1999/xlink" x="0px" y="0px"
	width="115" height="115" viewBox="0 0 700 700" style="enable-background:new 0 0 700 700;" xml:space="preserve">
<style type="text/css">
	.st0{fill:#FFFFFF;}
	.st1{fill:#012a4a;}
	.st2{fill:#024375;}
	.st3{fill:#03599c;}
</style>
<g>
	<path class="st0" d="M474.4,561.5c-6.9,0-13.8-2.6-19.1-7.9c-10.5-10.5-10.5-27.6,0-38.2L600.7,370L455.3,224.6
		c-10.5-10.5-10.5-27.6,0-38.2c10.5-10.5,27.6-10.5,38.2,0L658,350.9c5.1,5.1,7.9,11.9,7.9,19.1s-2.8,14-7.9,19.1L493.4,553.6
		C488.2,558.9,481.3,561.5,474.4,561.5z"/>
	<path class="st1" d="M474.4,178.5c6.9,0,13.8,2.6,19.1,7.9L658,350.9c5.1,5.1,7.9,11.9,7.9,19.1s-2.8,14-7.9,19.1L493.4,553.6
		c-5.3,5.3-12.2,7.9-19.1,7.9s-13.8-2.6-19.1-7.9c-10.5-10.5-10.5-27.6,0-38.2L600.7,370L455.3,224.6c-10.5-10.5-10.5-27.6,0-38.2
		C460.5,181.1,467.4,178.5,474.4,178.5 M474.4,161.4c-11.8,0-22.9,4.6-31.2,12.9c-8.3,8.3-12.9,19.4-12.9,31.2s4.6,22.9,12.9,31.2
		L576.5,370L443.1,503.3c-8.3,8.3-12.9,19.4-12.9,31.2s4.6,22.9,12.9,31.2s19.4,12.9,31.2,12.9s22.9-4.6,31.2-12.9L670,401.2
		c8.3-8.3,12.9-19.4,12.9-31.2c0-11.8-4.6-22.9-12.9-31.2L505.6,174.3C497.2,165.9,486.1,161.4,474.4,161.4L474.4,161.4z"/>
</g>
<g>
	<path class="st0" d="M275.6,561.5c-6.9,0-13.8-2.6-19.1-7.9c-10.5-10.5-10.5-27.6,0-38.2L402,370L256.5,224.6
		c-10.5-10.5-10.5-27.6,0-38.2c10.5-10.5,27.6-10.5,38.2,0l164.5,164.5c5.1,5.1,7.9,11.9,7.9,19.1s-2.8,14-7.9,19.1L294.7,553.6
		C289.4,558.9,282.5,561.5,275.6,561.5z"/>
	<path class="st2" d="M275.6,178.5c6.9,0,13.8,2.6,19.1,7.9l164.5,164.5c5.1,5.1,7.9,11.9,7.9,19.1s-2.8,14-7.9,19.1L294.7,553.6
		c-5.3,5.3-12.2,7.9-19.1,7.9s-13.8-2.6-19.1-7.9c-10.5-10.5-10.5-27.6,0-38.2L402,370L256.5,224.6c-10.5-10.5-10.5-27.6,0-38.2
		C261.8,181.1,268.7,178.5,275.6,178.5 M275.6,161.4c-11.8,0-22.9,4.6-31.2,12.9c-8.3,8.3-12.9,19.4-12.9,31.2s4.6,22.9,12.9,31.2
		L377.7,370L244.4,503.3c-8.3,8.3-12.9,19.4-12.9,31.2s4.6,22.9,12.9,31.2c8.3,8.3,19.4,12.9,31.2,12.9s22.9-4.6,31.2-12.9
		l164.5-164.5c8.3-8.3,12.9-19.4,12.9-31.2c0-11.8-4.6-22.9-12.9-31.2L306.8,174.3C298.5,165.9,287.4,161.4,275.6,161.4L275.6,161.4
		z"/>
</g>
<g>
	<path class="st0" d="M76.9,561.5c-6.9,0-13.8-2.6-19.1-7.9c-10.5-10.5-10.5-27.6,0-38.2L203.2,370L57.8,224.6
		c-10.5-10.5-10.5-27.6,0-38.2c10.5-10.5,27.6-10.5,38.2,0l164.5,164.5c5.1,5.1,7.9,11.9,7.9,19.1s-2.8,14-7.9,19.1L95.9,553.6
		C90.7,558.9,83.8,561.5,76.9,561.5z"/>
	<path class="st3" d="M76.9,178.5c6.9,0,13.8,2.6,19.1,7.9l164.5,164.5c5.1,5.1,7.9,11.9,7.9,19.1s-2.8,14-7.9,19.1L95.9,553.6
		c-5.3,5.3-12.2,7.9-19.1,7.9s-13.8-2.6-19.1-7.9c-10.5-10.5-10.5-27.6,0-38.2L203.2,370L57.8,224.6c-10.5-10.5-10.5-27.6,0-38.2
		C63,181.1,69.9,178.5,76.9,178.5 M76.9,161.4c-11.8,0-22.9,4.6-31.2,12.9c-8.3,8.3-12.9,19.4-12.9,31.2s4.6,22.9,12.9,31.2L179,370
		L45.6,503.3c-8.3,8.3-12.9,19.4-12.9,31.2s4.6,22.9,12.9,31.2s19.4,12.9,31.2,12.9s22.9-4.6,31.2-12.9l164.5-164.5
		c8.3-8.3,12.9-19.4,12.9-31.2c0-11.8-4.6-22.9-12.9-31.2L108.1,174.3C99.7,165.9,88.6,161.4,76.9,161.4L76.9,161.4z"/>
</g>
</svg>
